<mxfile host="Electron" modified="2024-01-30T22:57:15.717Z" agent="Mozilla/5.0 (Macintosh; Intel Mac OS X 10_15_7) AppleWebKit/537.36 (KHTML, like Gecko) draw.io/23.0.2 Chrome/120.0.6099.109 Electron/28.1.0 Safari/537.36" etag="eBtVnBwWdyjE77gJC1fv" version="23.0.2" type="device">
  <diagram id="0o5eSWPEtlZehuq8EVUf" name="Demo - account options">
    <mxGraphModel dx="4946" dy="575" grid="0" gridSize="10" guides="1" tooltips="1" connect="1" arrows="1" fold="1" page="0" pageScale="1" pageWidth="1100" pageHeight="850" math="0" shadow="0">
      <root>
        <mxCell id="0" />
        <mxCell id="1" parent="0" />
        <mxCell id="x3NugJeCu9QTw4I9TtK_-1" value="Central Governance Account (CGA)" style="points=[[0,0],[0.25,0],[0.5,0],[0.75,0],[1,0],[1,0.25],[1,0.5],[1,0.75],[1,1],[0.75,1],[0.5,1],[0.25,1],[0,1],[0,0.75],[0,0.5],[0,0.25]];outlineConnect=0;gradientColor=none;html=1;whiteSpace=wrap;fontSize=12;fontStyle=1;container=1;pointerEvents=0;collapsible=0;recursiveResize=0;shape=mxgraph.aws4.group;grIcon=mxgraph.aws4.group_account;strokeColor=#CD2264;fillColor=none;verticalAlign=top;align=left;spacingLeft=30;fontColor=#CD2264;dashed=0;" parent="1" vertex="1">
          <mxGeometry x="-799" y="1127" width="675" height="498" as="geometry" />
        </mxCell>
        <mxCell id="x3NugJeCu9QTw4I9TtK_-153" value="&lt;font color=&quot;#000000&quot;&gt;DZ Domain - Sustainability&lt;/font&gt;" style="fillColor=#e1d5e7;strokeColor=#9673a6;dashed=1;verticalAlign=top;fontStyle=0;whiteSpace=wrap;html=1;" parent="x3NugJeCu9QTw4I9TtK_-1" vertex="1">
          <mxGeometry x="15" y="46" width="634" height="439" as="geometry" />
        </mxCell>
        <mxCell id="x3NugJeCu9QTw4I9TtK_-154" value="&lt;font color=&quot;#000000&quot;&gt;Business Catalog&lt;/font&gt;" style="fillColor=#dae8fc;strokeColor=#6c8ebf;dashed=1;verticalAlign=top;fontStyle=0;whiteSpace=wrap;html=1;" parent="x3NugJeCu9QTw4I9TtK_-1" vertex="1">
          <mxGeometry x="33" y="131" width="196" height="104" as="geometry" />
        </mxCell>
        <mxCell id="x3NugJeCu9QTw4I9TtK_-155" value="Emissions Factors&lt;br&gt;Table" style="rounded=1;whiteSpace=wrap;html=1;" parent="x3NugJeCu9QTw4I9TtK_-1" vertex="1">
          <mxGeometry x="47" y="163" width="76" height="46" as="geometry" />
        </mxCell>
        <mxCell id="x3NugJeCu9QTw4I9TtK_-156" value="Business Activities Table" style="rounded=1;whiteSpace=wrap;html=1;" parent="x3NugJeCu9QTw4I9TtK_-1" vertex="1">
          <mxGeometry x="134" y="164" width="76" height="46" as="geometry" />
        </mxCell>
        <mxCell id="x3NugJeCu9QTw4I9TtK_-157" value="&lt;font color=&quot;#000000&quot;&gt;DZ Project - Sustainability&lt;/font&gt;" style="fillColor=#fad9d5;strokeColor=#ae4132;dashed=1;verticalAlign=top;fontStyle=0;whiteSpace=wrap;html=1;" parent="x3NugJeCu9QTw4I9TtK_-1" vertex="1">
          <mxGeometry x="295" y="99" width="337" height="346" as="geometry" />
        </mxCell>
        <mxCell id="x3NugJeCu9QTw4I9TtK_-158" style="edgeStyle=orthogonalEdgeStyle;rounded=0;orthogonalLoop=1;jettySize=auto;html=1;" parent="x3NugJeCu9QTw4I9TtK_-1" source="x3NugJeCu9QTw4I9TtK_-160" target="x3NugJeCu9QTw4I9TtK_-154" edge="1">
          <mxGeometry relative="1" as="geometry" />
        </mxCell>
        <mxCell id="x3NugJeCu9QTw4I9TtK_-159" value="publishes to" style="edgeLabel;html=1;align=center;verticalAlign=middle;resizable=0;points=[];labelBackgroundColor=none;" parent="x3NugJeCu9QTw4I9TtK_-158" vertex="1" connectable="0">
          <mxGeometry x="0.1857" y="1" relative="1" as="geometry">
            <mxPoint x="2" y="-10" as="offset" />
          </mxGeometry>
        </mxCell>
        <mxCell id="x3NugJeCu9QTw4I9TtK_-160" value="&lt;font color=&quot;#000000&quot;&gt;Inventory&lt;/font&gt;" style="fillColor=#b1ddf0;strokeColor=#10739e;dashed=1;verticalAlign=top;fontStyle=0;whiteSpace=wrap;html=1;" parent="x3NugJeCu9QTw4I9TtK_-1" vertex="1">
          <mxGeometry x="369" y="132" width="185" height="102" as="geometry" />
        </mxCell>
        <mxCell id="x3NugJeCu9QTw4I9TtK_-161" value="Emissions Factors&lt;br&gt;Table" style="rounded=1;whiteSpace=wrap;html=1;" parent="x3NugJeCu9QTw4I9TtK_-1" vertex="1">
          <mxGeometry x="378" y="164" width="76" height="46" as="geometry" />
        </mxCell>
        <mxCell id="x3NugJeCu9QTw4I9TtK_-162" value="Business Activities Table" style="rounded=1;whiteSpace=wrap;html=1;" parent="x3NugJeCu9QTw4I9TtK_-1" vertex="1">
          <mxGeometry x="461" y="165" width="76" height="46" as="geometry" />
        </mxCell>
        <mxCell id="x3NugJeCu9QTw4I9TtK_-163" style="edgeStyle=orthogonalEdgeStyle;rounded=0;orthogonalLoop=1;jettySize=auto;html=1;entryX=0.5;entryY=1;entryDx=0;entryDy=0;" parent="x3NugJeCu9QTw4I9TtK_-1" source="x3NugJeCu9QTw4I9TtK_-165" target="x3NugJeCu9QTw4I9TtK_-160" edge="1">
          <mxGeometry relative="1" as="geometry" />
        </mxCell>
        <mxCell id="x3NugJeCu9QTw4I9TtK_-164" value="loads into" style="edgeLabel;html=1;align=center;verticalAlign=middle;resizable=0;points=[];labelBackgroundColor=none;" parent="x3NugJeCu9QTw4I9TtK_-163" vertex="1" connectable="0">
          <mxGeometry x="-0.0694" relative="1" as="geometry">
            <mxPoint x="5" y="-8" as="offset" />
          </mxGeometry>
        </mxCell>
        <mxCell id="x3NugJeCu9QTw4I9TtK_-165" value="&lt;font color=&quot;#000000&quot;&gt;SUS Environment&lt;/font&gt;" style="fillColor=#e3c800;dashed=1;verticalAlign=top;fontStyle=0;whiteSpace=wrap;html=1;strokeColor=#B09500;fontColor=#000000;" parent="x3NugJeCu9QTw4I9TtK_-1" vertex="1">
          <mxGeometry x="306" y="297" width="149" height="102" as="geometry" />
        </mxCell>
        <mxCell id="x3NugJeCu9QTw4I9TtK_-166" style="edgeStyle=orthogonalEdgeStyle;rounded=0;orthogonalLoop=1;jettySize=auto;html=1;" parent="x3NugJeCu9QTw4I9TtK_-1" source="x3NugJeCu9QTw4I9TtK_-168" target="x3NugJeCu9QTw4I9TtK_-160" edge="1">
          <mxGeometry relative="1" as="geometry" />
        </mxCell>
        <mxCell id="x3NugJeCu9QTw4I9TtK_-167" value="loads into" style="edgeLabel;html=1;align=center;verticalAlign=middle;resizable=0;points=[];labelBackgroundColor=none;" parent="x3NugJeCu9QTw4I9TtK_-166" vertex="1" connectable="0">
          <mxGeometry x="-0.3149" y="-2" relative="1" as="geometry">
            <mxPoint x="-22" y="-8" as="offset" />
          </mxGeometry>
        </mxCell>
        <mxCell id="x3NugJeCu9QTw4I9TtK_-168" value="&lt;font color=&quot;#000000&quot;&gt;LOG Environment&lt;/font&gt;" style="fillColor=#e3c800;dashed=1;verticalAlign=top;fontStyle=0;whiteSpace=wrap;html=1;strokeColor=#B09500;fontColor=#000000;" parent="x3NugJeCu9QTw4I9TtK_-1" vertex="1">
          <mxGeometry x="469" y="297" width="148" height="102" as="geometry" />
        </mxCell>
        <mxCell id="x3NugJeCu9QTw4I9TtK_-170" value="DL Data Source" style="ellipse;whiteSpace=wrap;html=1;" parent="x3NugJeCu9QTw4I9TtK_-1" vertex="1">
          <mxGeometry x="340.5" y="334" width="80" height="47" as="geometry" />
        </mxCell>
        <mxCell id="x3NugJeCu9QTw4I9TtK_-171" value="DL Data Source" style="ellipse;whiteSpace=wrap;html=1;" parent="x3NugJeCu9QTw4I9TtK_-1" vertex="1">
          <mxGeometry x="499" y="334" width="80" height="47" as="geometry" />
        </mxCell>
        <mxCell id="4ekzd6JE3uJsooYWL2hJ-2" value="Amazon DataZone&lt;br&gt;Portal" style="sketch=0;outlineConnect=0;fontColor=#232F3E;gradientColor=none;fillColor=#8C4FFF;strokeColor=none;dashed=0;verticalLabelPosition=bottom;verticalAlign=top;align=center;html=1;fontSize=12;fontStyle=0;aspect=fixed;pointerEvents=1;shape=mxgraph.aws4.datazone_data_portal;" parent="x3NugJeCu9QTw4I9TtK_-1" vertex="1">
          <mxGeometry x="45" y="287.5" width="78" height="78" as="geometry" />
        </mxCell>
        <mxCell id="x3NugJeCu9QTw4I9TtK_-149" style="edgeStyle=orthogonalEdgeStyle;rounded=0;orthogonalLoop=1;jettySize=auto;html=1;" parent="1" source="x3NugJeCu9QTw4I9TtK_-153" target="x3NugJeCu9QTw4I9TtK_-181" edge="1">
          <mxGeometry relative="1" as="geometry">
            <mxPoint x="-47" y="1955.0000000000005" as="sourcePoint" />
            <mxPoint x="116" y="1955.0588235294117" as="targetPoint" />
            <Array as="points">
              <mxPoint x="-78" y="1207" />
              <mxPoint x="-78" y="1207" />
            </Array>
          </mxGeometry>
        </mxCell>
        <mxCell id="x3NugJeCu9QTw4I9TtK_-150" value="Associated Account" style="edgeLabel;html=1;align=center;verticalAlign=middle;resizable=0;points=[];" parent="x3NugJeCu9QTw4I9TtK_-149" vertex="1" connectable="0">
          <mxGeometry x="-0.1814" y="4" relative="1" as="geometry">
            <mxPoint x="32" y="-8" as="offset" />
          </mxGeometry>
        </mxCell>
        <mxCell id="x3NugJeCu9QTw4I9TtK_-151" style="edgeStyle=orthogonalEdgeStyle;rounded=0;orthogonalLoop=1;jettySize=auto;html=1;" parent="1" source="x3NugJeCu9QTw4I9TtK_-168" target="x3NugJeCu9QTw4I9TtK_-182" edge="1">
          <mxGeometry relative="1" as="geometry">
            <Array as="points">
              <mxPoint x="-59" y="1467" />
              <mxPoint x="-59" y="1276" />
            </Array>
            <mxPoint x="-42" y="2023.0000000000005" as="sourcePoint" />
            <mxPoint x="225" y="2069.9999999999995" as="targetPoint" />
          </mxGeometry>
        </mxCell>
        <mxCell id="x3NugJeCu9QTw4I9TtK_-152" value="Import&lt;br&gt;technical&lt;br&gt;metadata" style="edgeLabel;html=1;align=center;verticalAlign=middle;resizable=0;points=[];" parent="x3NugJeCu9QTw4I9TtK_-151" vertex="1" connectable="0">
          <mxGeometry x="-0.4551" y="-3" relative="1" as="geometry">
            <mxPoint x="3" y="-148" as="offset" />
          </mxGeometry>
        </mxCell>
        <mxCell id="x3NugJeCu9QTw4I9TtK_-181" value="Domain Asset Account (DAA) - Logistics (LOG)" style="points=[[0,0],[0.25,0],[0.5,0],[0.75,0],[1,0],[1,0.25],[1,0.5],[1,0.75],[1,1],[0.75,1],[0.5,1],[0.25,1],[0,1],[0,0.75],[0,0.5],[0,0.25]];outlineConnect=0;gradientColor=none;html=1;whiteSpace=wrap;fontSize=12;fontStyle=1;container=1;pointerEvents=0;collapsible=0;recursiveResize=0;shape=mxgraph.aws4.group;grIcon=mxgraph.aws4.group_account;strokeColor=#CD2264;fillColor=none;verticalAlign=top;align=left;spacingLeft=30;fontColor=#CD2264;dashed=0;" parent="1" vertex="1">
          <mxGeometry x="29" y="1171" width="335" height="199" as="geometry" />
        </mxCell>
        <mxCell id="x3NugJeCu9QTw4I9TtK_-182" value="&lt;font color=&quot;#000000&quot;&gt;Glue Data Catalog&lt;/font&gt;" style="fillColor=#fff2cc;strokeColor=#d6b656;dashed=1;verticalAlign=top;fontStyle=0;whiteSpace=wrap;html=1;" parent="x3NugJeCu9QTw4I9TtK_-181" vertex="1">
          <mxGeometry x="22" y="53.25" width="104" height="104" as="geometry" />
        </mxCell>
        <mxCell id="x3NugJeCu9QTw4I9TtK_-183" value="Business Activities Table" style="rounded=1;whiteSpace=wrap;html=1;" parent="x3NugJeCu9QTw4I9TtK_-181" vertex="1">
          <mxGeometry x="36" y="99.25" width="76" height="46" as="geometry" />
        </mxCell>
        <mxCell id="x3NugJeCu9QTw4I9TtK_-184" value="&lt;font color=&quot;#000000&quot;&gt;S3&lt;/font&gt;" style="fillColor=#d5e8d4;strokeColor=#82b366;dashed=1;verticalAlign=top;fontStyle=0;whiteSpace=wrap;html=1;" parent="x3NugJeCu9QTw4I9TtK_-181" vertex="1">
          <mxGeometry x="209" y="53.25" width="104" height="104" as="geometry" />
        </mxCell>
        <mxCell id="x3NugJeCu9QTw4I9TtK_-185" value="Business Activities File(s)" style="shape=document;whiteSpace=wrap;html=1;boundedLbl=1;size=0.09649122807017543;" parent="x3NugJeCu9QTw4I9TtK_-181" vertex="1">
          <mxGeometry x="221" y="93.75" width="80" height="57" as="geometry" />
        </mxCell>
        <mxCell id="x3NugJeCu9QTw4I9TtK_-186" value="references" style="edgeStyle=orthogonalEdgeStyle;rounded=0;orthogonalLoop=1;jettySize=auto;html=1;" parent="x3NugJeCu9QTw4I9TtK_-181" source="x3NugJeCu9QTw4I9TtK_-183" target="x3NugJeCu9QTw4I9TtK_-185" edge="1">
          <mxGeometry x="0.0092" y="8" relative="1" as="geometry">
            <mxPoint as="offset" />
          </mxGeometry>
        </mxCell>
        <mxCell id="x3NugJeCu9QTw4I9TtK_-187" style="edgeStyle=orthogonalEdgeStyle;rounded=0;orthogonalLoop=1;jettySize=auto;html=1;exitX=0.5;exitY=1;exitDx=0;exitDy=0;" parent="x3NugJeCu9QTw4I9TtK_-181" edge="1">
          <mxGeometry relative="1" as="geometry">
            <mxPoint x="167.5" y="206.24999999999977" as="sourcePoint" />
            <mxPoint x="167.5" y="206.24999999999977" as="targetPoint" />
          </mxGeometry>
        </mxCell>
        <mxCell id="x3NugJeCu9QTw4I9TtK_-188" value="Domain Asset Account (DAA) - Sustainability (SUS)" style="points=[[0,0],[0.25,0],[0.5,0],[0.75,0],[1,0],[1,0.25],[1,0.5],[1,0.75],[1,1],[0.75,1],[0.5,1],[0.25,1],[0,1],[0,0.75],[0,0.5],[0,0.25]];outlineConnect=0;gradientColor=none;html=1;whiteSpace=wrap;fontSize=12;fontStyle=1;container=1;pointerEvents=0;collapsible=0;recursiveResize=0;shape=mxgraph.aws4.group;grIcon=mxgraph.aws4.group_account;strokeColor=#CD2264;fillColor=none;verticalAlign=top;align=left;spacingLeft=30;fontColor=#CD2264;dashed=0;" parent="1" vertex="1">
          <mxGeometry x="33" y="1465" width="335" height="199" as="geometry" />
        </mxCell>
        <mxCell id="x3NugJeCu9QTw4I9TtK_-189" value="&lt;font color=&quot;#000000&quot;&gt;Glue Data Catalog&lt;/font&gt;" style="fillColor=#fff2cc;strokeColor=#d6b656;dashed=1;verticalAlign=top;fontStyle=0;whiteSpace=wrap;html=1;" parent="x3NugJeCu9QTw4I9TtK_-188" vertex="1">
          <mxGeometry x="22" y="53.25" width="104" height="104" as="geometry" />
        </mxCell>
        <mxCell id="x3NugJeCu9QTw4I9TtK_-190" value="Emissions Factors&lt;br&gt;Table" style="rounded=1;whiteSpace=wrap;html=1;" parent="x3NugJeCu9QTw4I9TtK_-188" vertex="1">
          <mxGeometry x="36" y="99.25" width="76" height="46" as="geometry" />
        </mxCell>
        <mxCell id="x3NugJeCu9QTw4I9TtK_-191" value="&lt;font color=&quot;#000000&quot;&gt;S3&lt;/font&gt;" style="fillColor=#d5e8d4;strokeColor=#82b366;dashed=1;verticalAlign=top;fontStyle=0;whiteSpace=wrap;html=1;" parent="x3NugJeCu9QTw4I9TtK_-188" vertex="1">
          <mxGeometry x="209" y="53.25" width="104" height="104" as="geometry" />
        </mxCell>
        <mxCell id="x3NugJeCu9QTw4I9TtK_-192" value="Emissions Factors&lt;br&gt;File(s)" style="shape=document;whiteSpace=wrap;html=1;boundedLbl=1;size=0.09649122807017543;" parent="x3NugJeCu9QTw4I9TtK_-188" vertex="1">
          <mxGeometry x="221" y="93.75" width="80" height="57" as="geometry" />
        </mxCell>
        <mxCell id="x3NugJeCu9QTw4I9TtK_-193" value="references" style="edgeStyle=orthogonalEdgeStyle;rounded=0;orthogonalLoop=1;jettySize=auto;html=1;" parent="x3NugJeCu9QTw4I9TtK_-188" source="x3NugJeCu9QTw4I9TtK_-190" target="x3NugJeCu9QTw4I9TtK_-192" edge="1">
          <mxGeometry x="0.0092" y="8" relative="1" as="geometry">
            <mxPoint as="offset" />
          </mxGeometry>
        </mxCell>
        <mxCell id="x3NugJeCu9QTw4I9TtK_-194" style="edgeStyle=orthogonalEdgeStyle;rounded=0;orthogonalLoop=1;jettySize=auto;html=1;exitX=0.5;exitY=1;exitDx=0;exitDy=0;" parent="x3NugJeCu9QTw4I9TtK_-188" edge="1">
          <mxGeometry relative="1" as="geometry">
            <mxPoint x="167.5" y="206.24999999999977" as="sourcePoint" />
            <mxPoint x="167.5" y="206.24999999999977" as="targetPoint" />
          </mxGeometry>
        </mxCell>
        <mxCell id="x3NugJeCu9QTw4I9TtK_-196" style="edgeStyle=orthogonalEdgeStyle;rounded=0;orthogonalLoop=1;jettySize=auto;html=1;" parent="1" source="x3NugJeCu9QTw4I9TtK_-153" target="x3NugJeCu9QTw4I9TtK_-188" edge="1">
          <mxGeometry relative="1" as="geometry">
            <mxPoint x="-167" y="1217" as="sourcePoint" />
            <mxPoint x="39" y="1217" as="targetPoint" />
            <Array as="points">
              <mxPoint x="-22" y="1519" />
              <mxPoint x="-22" y="1519" />
            </Array>
          </mxGeometry>
        </mxCell>
        <mxCell id="x3NugJeCu9QTw4I9TtK_-197" value="Associated Account" style="edgeLabel;html=1;align=center;verticalAlign=middle;resizable=0;points=[];" parent="x3NugJeCu9QTw4I9TtK_-196" vertex="1" connectable="0">
          <mxGeometry x="-0.1814" y="4" relative="1" as="geometry">
            <mxPoint x="29" y="-7" as="offset" />
          </mxGeometry>
        </mxCell>
        <mxCell id="x3NugJeCu9QTw4I9TtK_-198" style="edgeStyle=orthogonalEdgeStyle;rounded=0;orthogonalLoop=1;jettySize=auto;html=1;" parent="1" source="x3NugJeCu9QTw4I9TtK_-165" target="x3NugJeCu9QTw4I9TtK_-189" edge="1">
          <mxGeometry relative="1" as="geometry">
            <Array as="points">
              <mxPoint x="-511" y="1585" />
            </Array>
            <mxPoint x="-199" y="1477" as="sourcePoint" />
            <mxPoint x="61" y="1286" as="targetPoint" />
          </mxGeometry>
        </mxCell>
        <mxCell id="x3NugJeCu9QTw4I9TtK_-199" value="Import&lt;br&gt;technical&lt;br&gt;metadata" style="edgeLabel;html=1;align=center;verticalAlign=middle;resizable=0;points=[];" parent="x3NugJeCu9QTw4I9TtK_-198" vertex="1" connectable="0">
          <mxGeometry x="-0.4551" y="-3" relative="1" as="geometry">
            <mxPoint x="410" y="-24" as="offset" />
          </mxGeometry>
        </mxCell>
        <mxCell id="4ekzd6JE3uJsooYWL2hJ-3" style="edgeStyle=orthogonalEdgeStyle;rounded=0;orthogonalLoop=1;jettySize=auto;html=1;" parent="1" source="4ekzd6JE3uJsooYWL2hJ-1" target="4ekzd6JE3uJsooYWL2hJ-2" edge="1">
          <mxGeometry relative="1" as="geometry" />
        </mxCell>
        <mxCell id="4ekzd6JE3uJsooYWL2hJ-1" value="User" style="sketch=0;outlineConnect=0;fontColor=#232F3E;gradientColor=none;fillColor=#232F3D;strokeColor=none;dashed=0;verticalLabelPosition=bottom;verticalAlign=top;align=center;html=1;fontSize=12;fontStyle=0;aspect=fixed;pointerEvents=1;shape=mxgraph.aws4.user;" parent="1" vertex="1">
          <mxGeometry x="-890" y="1432.5" width="42" height="42" as="geometry" />
        </mxCell>
        <mxCell id="r6pZuNi5Q7_uVQTA39u1-1" value="Central Governance Account (CGA)" style="points=[[0,0],[0.25,0],[0.5,0],[0.75,0],[1,0],[1,0.25],[1,0.5],[1,0.75],[1,1],[0.75,1],[0.5,1],[0.25,1],[0,1],[0,0.75],[0,0.5],[0,0.25]];outlineConnect=0;gradientColor=none;html=1;whiteSpace=wrap;fontSize=12;fontStyle=1;container=1;pointerEvents=0;collapsible=0;recursiveResize=0;shape=mxgraph.aws4.group;grIcon=mxgraph.aws4.group_account;strokeColor=#CD2264;fillColor=none;verticalAlign=top;align=left;spacingLeft=30;fontColor=#CD2264;dashed=0;" vertex="1" parent="1">
          <mxGeometry x="-2829" y="1106" width="675" height="908" as="geometry" />
        </mxCell>
        <mxCell id="r6pZuNi5Q7_uVQTA39u1-56" value="OpenLineage" style="fillColor=#ffcc99;strokeColor=#36393d;dashed=1;verticalAlign=top;fontStyle=0;whiteSpace=wrap;html=1;" vertex="1" parent="r6pZuNi5Q7_uVQTA39u1-1">
          <mxGeometry x="16" y="607" width="641" height="278" as="geometry" />
        </mxCell>
        <mxCell id="r6pZuNi5Q7_uVQTA39u1-2" value="&lt;font color=&quot;#000000&quot;&gt;DZ Domain - Sustainability&lt;/font&gt;" style="fillColor=#e1d5e7;strokeColor=#9673a6;dashed=1;verticalAlign=top;fontStyle=0;whiteSpace=wrap;html=1;" vertex="1" parent="r6pZuNi5Q7_uVQTA39u1-1">
          <mxGeometry x="15" y="71" width="645" height="490" as="geometry" />
        </mxCell>
        <mxCell id="r6pZuNi5Q7_uVQTA39u1-3" value="&lt;font color=&quot;#000000&quot;&gt;Business Catalog&lt;/font&gt;" style="fillColor=#dae8fc;strokeColor=#6c8ebf;dashed=1;verticalAlign=top;fontStyle=0;whiteSpace=wrap;html=1;" vertex="1" parent="r6pZuNi5Q7_uVQTA39u1-1">
          <mxGeometry x="32" y="262" width="196" height="152" as="geometry" />
        </mxCell>
        <mxCell id="r6pZuNi5Q7_uVQTA39u1-4" value="Emissions Factors&lt;br&gt;Asset" style="rounded=1;whiteSpace=wrap;html=1;" vertex="1" parent="r6pZuNi5Q7_uVQTA39u1-1">
          <mxGeometry x="46" y="294" width="76" height="46" as="geometry" />
        </mxCell>
        <mxCell id="r6pZuNi5Q7_uVQTA39u1-5" value="Business Activities&lt;br&gt;Asset" style="rounded=1;whiteSpace=wrap;html=1;" vertex="1" parent="r6pZuNi5Q7_uVQTA39u1-1">
          <mxGeometry x="133" y="295" width="76" height="46" as="geometry" />
        </mxCell>
        <mxCell id="r6pZuNi5Q7_uVQTA39u1-6" value="&lt;font color=&quot;#000000&quot;&gt;DZ Project - Sustainability&lt;/font&gt;" style="fillColor=#fad9d5;strokeColor=#ae4132;dashed=1;verticalAlign=top;fontStyle=0;whiteSpace=wrap;html=1;" vertex="1" parent="r6pZuNi5Q7_uVQTA39u1-1">
          <mxGeometry x="295" y="125" width="337" height="379" as="geometry" />
        </mxCell>
        <mxCell id="r6pZuNi5Q7_uVQTA39u1-7" style="edgeStyle=orthogonalEdgeStyle;rounded=0;orthogonalLoop=1;jettySize=auto;html=1;" edge="1" parent="r6pZuNi5Q7_uVQTA39u1-1" source="r6pZuNi5Q7_uVQTA39u1-9" target="r6pZuNi5Q7_uVQTA39u1-3">
          <mxGeometry relative="1" as="geometry" />
        </mxCell>
        <mxCell id="r6pZuNi5Q7_uVQTA39u1-8" value="publishes to" style="edgeLabel;html=1;align=center;verticalAlign=middle;resizable=0;points=[];labelBackgroundColor=none;" vertex="1" connectable="0" parent="r6pZuNi5Q7_uVQTA39u1-7">
          <mxGeometry x="0.1857" y="1" relative="1" as="geometry">
            <mxPoint x="11" y="-12" as="offset" />
          </mxGeometry>
        </mxCell>
        <mxCell id="r6pZuNi5Q7_uVQTA39u1-9" value="&lt;font color=&quot;#000000&quot;&gt;Inventory&lt;/font&gt;" style="fillColor=#b1ddf0;strokeColor=#10739e;dashed=1;verticalAlign=top;fontStyle=0;whiteSpace=wrap;html=1;" vertex="1" parent="r6pZuNi5Q7_uVQTA39u1-1">
          <mxGeometry x="314" y="158" width="305" height="99" as="geometry" />
        </mxCell>
        <mxCell id="r6pZuNi5Q7_uVQTA39u1-10" value="Emissions Factors&lt;br&gt;Asset" style="rounded=1;whiteSpace=wrap;html=1;" vertex="1" parent="r6pZuNi5Q7_uVQTA39u1-1">
          <mxGeometry x="324" y="188" width="76" height="46" as="geometry" />
        </mxCell>
        <mxCell id="r6pZuNi5Q7_uVQTA39u1-11" value="Business Activities Asset" style="rounded=1;whiteSpace=wrap;html=1;" vertex="1" parent="r6pZuNi5Q7_uVQTA39u1-1">
          <mxGeometry x="536" y="188" width="76" height="46" as="geometry" />
        </mxCell>
        <mxCell id="r6pZuNi5Q7_uVQTA39u1-12" style="edgeStyle=orthogonalEdgeStyle;rounded=0;orthogonalLoop=1;jettySize=auto;html=1;entryX=0.5;entryY=1;entryDx=0;entryDy=0;" edge="1" parent="r6pZuNi5Q7_uVQTA39u1-1" source="r6pZuNi5Q7_uVQTA39u1-14" target="r6pZuNi5Q7_uVQTA39u1-9">
          <mxGeometry relative="1" as="geometry">
            <Array as="points">
              <mxPoint x="381" y="340" />
              <mxPoint x="467" y="340" />
            </Array>
          </mxGeometry>
        </mxCell>
        <mxCell id="r6pZuNi5Q7_uVQTA39u1-13" value="loads into" style="edgeLabel;html=1;align=center;verticalAlign=middle;resizable=0;points=[];labelBackgroundColor=none;" vertex="1" connectable="0" parent="r6pZuNi5Q7_uVQTA39u1-12">
          <mxGeometry x="-0.0694" relative="1" as="geometry">
            <mxPoint x="-27" y="-7" as="offset" />
          </mxGeometry>
        </mxCell>
        <mxCell id="r6pZuNi5Q7_uVQTA39u1-14" value="&lt;font color=&quot;#000000&quot;&gt;SUS Environment&lt;/font&gt;" style="fillColor=#e3c800;dashed=1;verticalAlign=top;fontStyle=0;whiteSpace=wrap;html=1;strokeColor=#B09500;fontColor=#000000;" vertex="1" parent="r6pZuNi5Q7_uVQTA39u1-1">
          <mxGeometry x="306" y="362" width="149" height="102" as="geometry" />
        </mxCell>
        <mxCell id="r6pZuNi5Q7_uVQTA39u1-15" style="edgeStyle=orthogonalEdgeStyle;rounded=0;orthogonalLoop=1;jettySize=auto;html=1;" edge="1" parent="r6pZuNi5Q7_uVQTA39u1-1" source="r6pZuNi5Q7_uVQTA39u1-17" target="r6pZuNi5Q7_uVQTA39u1-9">
          <mxGeometry relative="1" as="geometry">
            <Array as="points">
              <mxPoint x="543" y="341" />
              <mxPoint x="467" y="341" />
            </Array>
          </mxGeometry>
        </mxCell>
        <mxCell id="r6pZuNi5Q7_uVQTA39u1-16" value="loads into" style="edgeLabel;html=1;align=center;verticalAlign=middle;resizable=0;points=[];labelBackgroundColor=none;" vertex="1" connectable="0" parent="r6pZuNi5Q7_uVQTA39u1-15">
          <mxGeometry x="-0.3149" y="-2" relative="1" as="geometry">
            <mxPoint x="8" y="-6" as="offset" />
          </mxGeometry>
        </mxCell>
        <mxCell id="r6pZuNi5Q7_uVQTA39u1-17" value="&lt;font color=&quot;#000000&quot;&gt;BIZ Environment&lt;/font&gt;" style="fillColor=#e3c800;dashed=1;verticalAlign=top;fontStyle=0;whiteSpace=wrap;html=1;strokeColor=#B09500;fontColor=#000000;" vertex="1" parent="r6pZuNi5Q7_uVQTA39u1-1">
          <mxGeometry x="469" y="362" width="148" height="102" as="geometry" />
        </mxCell>
        <mxCell id="r6pZuNi5Q7_uVQTA39u1-18" value="DL Data Source" style="ellipse;whiteSpace=wrap;html=1;" vertex="1" parent="r6pZuNi5Q7_uVQTA39u1-1">
          <mxGeometry x="340.5" y="399" width="80" height="47" as="geometry" />
        </mxCell>
        <mxCell id="r6pZuNi5Q7_uVQTA39u1-19" value="DL Data Source" style="ellipse;whiteSpace=wrap;html=1;" vertex="1" parent="r6pZuNi5Q7_uVQTA39u1-1">
          <mxGeometry x="499" y="399" width="80" height="47" as="geometry" />
        </mxCell>
        <mxCell id="r6pZuNi5Q7_uVQTA39u1-20" value="Amazon DataZone&lt;br&gt;Portal" style="sketch=0;outlineConnect=0;fontColor=#232F3E;gradientColor=none;fillColor=#8C4FFF;strokeColor=none;dashed=0;verticalLabelPosition=bottom;verticalAlign=top;align=center;html=1;fontSize=12;fontStyle=0;aspect=fixed;pointerEvents=1;shape=mxgraph.aws4.datazone_data_portal;" vertex="1" parent="r6pZuNi5Q7_uVQTA39u1-1">
          <mxGeometry x="36" y="434" width="78" height="78" as="geometry" />
        </mxCell>
        <mxCell id="r6pZuNi5Q7_uVQTA39u1-46" value="" style="shape=image;verticalLabelPosition=bottom;labelBackgroundColor=default;verticalAlign=top;aspect=fixed;imageAspect=0;image=data:image/png,iVBORw0KGgoAAAANSUhEUgAAASgAAABUCAYAAAAxkKoXAAAKq2lDQ1BJQ0MgUHJvZmlsZQAASImVlwdUU+kSgP9700NCSwhFSuhNegsgJYQWem82QhIglBADAcGuLK7AiqIigoqgiyIKrgWQtSCi2BbFBtYFWQSUdbFgQ+Vd4BDcfee9d96cM2e+TOafmf8/979nLgBkeY5IlAbLA5AuzBKH+XjQY2Lj6LhhAAENQATGQJnDzRQxQ0ICACKz9u/y/j4Sjcgds6lc//7/fxUFHj+TCwAUgnACL5ObjvBJRF9wReIsAFD7EL9uTpZoijsQpoqRBhHuneKkGR6d4oRpRoPpmIgwFsJUAPAkDkecBACJjvjp2dwkJA/JHWFLIU8gRFiEsGt6egYP4WMIGyExiI80lZ+R8F2epL/lTJDm5HCSpDyzl2nBewoyRWmc3P/zOP63pKdJZmsYIEpKFvuGIVYRObPe1Ax/KQsTgoJnWcCbjp/mZIlv5CxzM1lxs8zjePpL16YFBcxyosCbLc2TxY6YZX6mV/gsizPCpLUSxSzmLHPEc3UlqZFSfzKfLc2flxwRPcvZgqigWc5MDfefi2FJ/WJJmLR/vtDHY66ut3Tv6Znf7VfAlq7NSo7wle6dM9c/X8icy5kZI+2Nx/f0mouJlMaLsjyktURpIdJ4fpqP1J+ZHS5dm4U8kHNrQ6RnmMLxC5llwAIZIA1RMaCDAOSXJwBZ/OVZUxthZYhyxYKk5Cw6E7lhfDpbyDWfT7e2tLYFYOq+zjwOb2nT9xCiXZvzbdAGwCV3cnLyzJzP/xYAJ84CQHw45zMcBED2GgBXdnIl4uwZ3/RdwiBvATlABapAE+gCI2AGrIE9cAbuwAv4gWAQAWLBEsAFySAd6TwHrATrQAEoAlvADlABqsB+cAgcBcdBMzgDLoDL4Dq4Be6BR6APDIKXYAy8BxMQBOEgMkSBVCEtSB8yhawhBuQKeUEBUBgUC8VDSZAQkkAroQ1QEVQKVUDVUB30C3QaugBdhbqhB1A/NAK9gT7DKJgEU2EN2AC2gBkwE/aHI+DFcBK8DM6D8+HNcDlcAx+Bm+AL8HX4HtwHv4THUQAlg6KhtFFmKAaKhQpGxaESUWLUalQhqgxVg2pAtaI6UXdQfahR1Cc0Fk1B09FmaGe0LzoSzUUvQ69GF6Mr0IfQTegO9B10P3oM/Q1DxqhjTDFOGDYmBpOEycEUYMowtZhTmEuYe5hBzHssFkvDGmIdsL7YWGwKdgW2GLsH24htw3ZjB7DjOBxOFWeKc8EF4zi4LFwBbhfuCO487jZuEPcRL4PXwlvjvfFxeCF+Pb4Mfxh/Dn8bP4SfIMgT9AlOhGACj5BLKCEcILQSbhIGCRNEBaIh0YUYQUwhriOWExuIl4iPiW9lZGR0ZBxlQmUEMmtlymWOyVyR6Zf5RFIkmZBYpEUkCWkz6SCpjfSA9JZMJhuQ3clx5CzyZnId+SL5KfmjLEXWXJYty5NdI1sp2yR7W/aVHEFOX44pt0QuT65M7oTcTblReYK8gTxLniO/Wr5S/rR8j/y4AkXBSiFYIV2hWOGwwlWFYUWcooGilyJPMV9xv+JFxQEKiqJLYVG4lA2UA5RLlEEqlmpIZVNTqEXUo9Qu6piSopKtUpTScqVKpbNKfTQUzYDGpqXRSmjHafdpn5U1lJnKfOVNyg3Kt5U/qMxTcVfhqxSqNKrcU/msSlf1Uk1V3ararPpEDa1mohaqlqO2V+2S2ug86jznedx5hfOOz3uoDqubqIepr1Dfr35DfVxDU8NHQ6SxS+OixqgmTdNdM0Vzu+Y5zREtiparlkBru9Z5rRd0JTqTnkYvp3fQx7TVtX21JdrV2l3aEzqGOpE663UadZ7oEnUZuom623Xbdcf0tPQC9Vbq1es91CfoM/ST9Xfqd+p/MDA0iDbYaNBsMGyoYsg2zDOsN3xsRDZyM1pmVGN01xhrzDBONd5jfMsENrEzSTapNLlpCpvamwpM95h2z8fMd5wvnF8zv8eMZMY0yzarN+s3p5kHmK83bzZ/ZaFnEWex1aLT4pulnWWa5QHLR1aKVn5W661ard5Ym1hzrSut79qQbbxt1ti02Ly2NbXl2+617bWj2AXabbRrt/tq72Avtm+wH3HQc4h32O3Qw6AyQhjFjCuOGEcPxzWOZxw/Odk7ZTkdd/rL2cw51fmw8/ACwwX8BQcWDLjouHBcql36XOmu8a77XPvctN04bjVuz9x13Xnute5DTGNmCvMI85WHpYfY45THB5YTaxWrzRPl6eNZ6NnlpegV6VXh9dRbxzvJu957zMfOZ4VPmy/G1993q28PW4PNZdexx/wc/Fb5dfiT/MP9K/yfBZgEiANaA+FAv8BtgY+D9IOEQc3BIJgdvC34SYhhyLKQX0OxoSGhlaHPw6zCVoZ1hlPCl4YfDn8f4RFREvEo0ihSEtkeJRe1KKou6kO0Z3RpdF+MRcyqmOuxarGC2JY4XFxUXG3c+EKvhTsWDi6yW1Sw6P5iw8XLF19dorYkbcnZpXJLOUtPxGPio+MPx3/hBHNqOOMJ7ITdCWNcFncn9yXPnbedN8J34ZfyhxJdEksTh5NckrYljSS7JZcljwpYggrB6xTflKqUD6nBqQdTJ9Oi0xrT8enx6aeFisJUYUeGZsbyjG6RqahA1LfMadmOZWNif3FtJpS5OLMli4oMRjckRpIfJP3ZrtmV2R9zonJOLFdYLlx+I9ckd1PuUJ533s8r0Cu4K9pXaq9ct7J/FXNV9WpodcLq9jW6a/LXDK71WXtoHXFd6rrf1luuL13/bkP0htZ8jfy1+QM/+PxQXyBbIC7o2ei8sepH9I+CH7s22WzatelbIa/wWpFlUVnRl2Ju8bWfrH4q/2lyc+LmrhL7kr1bsFuEW+5vddt6qFShNK90YFvgtqbt9O2F29/tWLrjapltWdVO4k7Jzr7ygPKWXXq7tuz6UpFcca/So7Jxt/ruTbs/7OHtub3XfW9DlUZVUdXnfYJ9vdU+1U01BjVl+7H7s/c/PxB1oPNnxs91tWq1RbVfDwoP9h0KO9RR51BXd1j9cEk9XC+pHzmy6Mito55HWxrMGqobaY1Fx8AxybEXv8T/cv+4//H2E4wTDSf1T+4+RTlV2AQ15TaNNSc397XEtnSf9jvd3urceupX818PntE+U3lW6WzJOeK5/HOT5/POj7eJ2kYvJF0YaF/a/uhizMW7HaEdXZf8L1257H35Yiez8/wVlytnrjpdPX2Nca35uv31pht2N079ZvfbqS77rqabDjdbbjneau1e0H3uttvtC3c871y+y757/V7Qve77kfd7exb19PXyeocfpD14/TD74cSjtY8xjwufyD8pe6r+tOZ3498b++z7zvZ79t94Fv7s0QB34OUfmX98Gcx/Tn5eNqQ1VDdsPXxmxHvk1ouFLwZfil5OjBb8qfDn7ldGr07+5f7XjbGYscHX4teTb4rfqr49+M72Xft4yPjT9+nvJz4UflT9eOgT41Pn5+jPQxM5X3Bfyr8af2395v/t8WT65KSII+ZMjwIoROHERADeHASAHAsABZkhiAtn5ulpgWa+AaYJ/CeembmnxR6ABsRMjUWsNgCOIWqwFsmN2KmRKMIdwDY2Up2dfafn9CnBIl8s+zyn6MG2xWvBP2Rmhv+u739aMJXVFvzT/gvFGQhsA6csVwAAAIplWElmTU0AKgAAAAgABAEaAAUAAAABAAAAPgEbAAUAAAABAAAARgEoAAMAAAABAAIAAIdpAAQAAAABAAAATgAAAAAAAACQAAAAAQAAAJAAAAABAAOShgAHAAAAEgAAAHigAgAEAAAAAQAAASigAwAEAAAAAQAAAFQAAAAAQVNDSUkAAABTY3JlZW5zaG90GUsbWwAAAAlwSFlzAAAWJQAAFiUBSVIk8AAAAdVpVFh0WE1MOmNvbS5hZG9iZS54bXAAAAAAADx4OnhtcG1ldGEgeG1sbnM6eD0iYWRvYmU6bnM6bWV0YS8iIHg6eG1wdGs9IlhNUCBDb3JlIDYuMC4wIj4KICAgPHJkZjpSREYgeG1sbnM6cmRmPSJodHRwOi8vd3d3LnczLm9yZy8xOTk5LzAyLzIyLXJkZi1zeW50YXgtbnMjIj4KICAgICAgPHJkZjpEZXNjcmlwdGlvbiByZGY6YWJvdXQ9IiIKICAgICAgICAgICAgeG1sbnM6ZXhpZj0iaHR0cDovL25zLmFkb2JlLmNvbS9leGlmLzEuMC8iPgogICAgICAgICA8ZXhpZjpQaXhlbFlEaW1lbnNpb24+ODQ8L2V4aWY6UGl4ZWxZRGltZW5zaW9uPgogICAgICAgICA8ZXhpZjpQaXhlbFhEaW1lbnNpb24+Mjk2PC9leGlmOlBpeGVsWERpbWVuc2lvbj4KICAgICAgICAgPGV4aWY6VXNlckNvbW1lbnQ+U2NyZWVuc2hvdDwvZXhpZjpVc2VyQ29tbWVudD4KICAgICAgPC9yZGY6RGVzY3JpcHRpb24+CiAgIDwvcmRmOlJERj4KPC94OnhtcG1ldGE+Crjjg/QAAAAcaURPVAAAAAIAAAAAAAAAKgAAACgAAAAqAAAAKgAABwdqCWZKAAAG00lEQVR4AexcTY8VRRTtESWjEOKoOCiBDAyiQgZQFNAQFc1EA4mJCQkLPxITF/wL485/4caVf4GF/ABX7P3YstGliR/BOWMOOVOp6q56r7qnhncqIVXddevcW+fePq9f02+WHmy1zs0MmAEz0CADSxaoBrPikMyAGdhmwALlQjADZqBZBixQzabGgZkBM2CBcg2YATPQLAMWqGZT48DMgBmwQLkGzIAZaJYBC1SzqXFgZsAMWKBcA2bADDTLgAWq2dQ4MDNgBixQrgEzYAaaZcAC1WxqHJgZMAMWKNeAGTADzTJggWo2NQ7MDJgBC5RrwAyYgWYZsEA1mxoHZgbMgAXKNWAGzECzDFigmk1NXmDf/nC3O3FkJc/YVmaggIF//n3QfXrtQsGK+qYWqPqcTooIgfrzr78n9Wlni8PA++fXu3c3Tu7ahi1Qu0Z9HccWqDo8GiXNwOcfvN6deuHZtMGIMxaoEcmdAtoCNQXLi+1j5eCT3e3rV7rl/Y9PToQFanLK6zq0QNXl02hxBjbWjnQ3r27EJ0c8a4EakdwpoC1QU7BsH2Dgo4svd2+9enxSMixQk9Jd35kFqj6nRkwz8NWHb3bHDj+dNqg8Y4GqTOjUcBaoqRlfbH+rKwe3n0c9trQ0CREWqEloHs+JBWo8bo0cZ+DiqaPdx1fOxCcrn7VAVSZ0ajgL1NSM2x8YgEBBqMZu1QXqt/t/7Ih5bdVvOe8gpPKBBaoyoYbLYgBf8fDqAb7yjdnmFigI0q/3f+/Qh+Kkgb937v+3Ua+dW9fTHs/JQJ9AgWvw/t2dn3pzM2cIXr6gDOBhOR6aj9nmEqhZCh93VPhnoaqT1j6B+nLzjW2u8cGBXNVoyBvy9+O9ny16NQjd4xh47QCvH4zVZhIoFHxYoKHo4Bh2uLtCu3vvlx17wCe7RWoHJTMdTClQyClEj+3r7+9w6H6BGcALnHiRc4xWLFAQJhUbChP6oRautUgNMTY8P6VA8Ssjoqp5Vza8S1u0zAB+AoPnUfhJTO1WJFBhUc4iMDUwapOwl/GmFCjwhA+iE6vPbN9B72XeHHtdBta3fkz8xdaPimu3IoHSZ06ziJMGr1h8VqLzHucxMLVA5UVlq0VkAH+WBX+epWbLFij9ejavOGEDeicVPtuoucFHHcsC9ahneG/tD3/g7vTRw9WCzhYofSD6zWebVQJQ0eu7i4KYocWec3GOD+Px9SNmVxowcPn6ROi71sN9+AAHil8a/9QCxb0z7hJemRdiaO44LsGjLXCVN2Jp/mhb2qewY/uHLX3n+gk5wTpi1PRBzofwc+NO2R16annredTl7sDy/pRJ0fksgQJRfDBe4+5JI6TwIVH6P0QxGxUxJBFxMZlqj/GscQ7h0k8uPr/KauzKJ/G0BxcoKBavzoXjqQWK+0A9xC4gxMcPMOYW57gO41gD76WvQuTy1BdrLBacA//IcV9TXNZv7j5mjT3GbSrGIc6xTveQwik9f+b4892td86XLovaFwsUCYqizXCSFzCWprBZ6CRc19AlEh4Tq1whAU5MOIDLFuLnYGvs9EEcYjN2nqc/7pfHsX5qgWKOUoWNvSBuNAqOii33iB625IB7i+WWc9rHBASYKdxUvIrJcci7xgybMG7uk/tmzokX9soR50IfKo6Ygw9d18cT7JRz+FB8xeZc34c9YyzpN197qbt6dq1kSdQ2S6BIeM4FGfXSc5LkwyQsDC6jf8zjth3FhoZ49Nae9qHQ5MQdrknFEtoNYWvsLORU3Ihf8bUgubewb1mgkCfsFQ3j1FcuFRuth3CvPA7twRkvQNqgVzsc54iUrgFmHzbyg3+0yxEoxR+KCbYpH30CxQ8R4DO2kB/g4tphfmDLWsW4RktdQyXYuy5QCJbEpC52zrMY0DN5fZvVJA6RpT5YaDWwFRdFktqj+lKRGoq7ZYHCfpGrHGHQfWrelBeMgcf8AJ+iH9rpcS62ikdOzPCha+iTOeex9ioeffvUNTEfqbVqm7MHtc/lU2PrGz936EB3+8bl7ol9+/rMeucGBUqDzrm4er0lJplQLT415TzPaZJ5LtVrIlPrVBBSNjF8YqfixhqNvYQ/ruvDBn7LAoX4ci4S2Ok++9boBUWOsH6oUaS0nsM1zH2f/3ANjonNuVRcGvu8Plh79Il+VnxdF8NVH6XjCydf7D55+2zpsof2RQIVJuIhypwDJlSLVCE5j3MlFznstSBT8RN/TGzEwgsA46HGQklxwvWtCxS5Zbx9PfOjOVN75aL0Ate15Fax9SItiRkYio3j1HrmvzT2mI++PaT4A06qMbZZ1qYwef7GpVe6S6eP8bCo/w8AAP//GBojJQAACR1JREFU7VxNj1RFFH0oX0E+dNDBGREHCKjgDEgQGCEqmiFAMMZo4kJjotFI5EcYd/4LN678CyzkB7hiL7qUjS5NdKF9Wg+eqa6qV1Xvq5u+lWjVq7p176lzbx1eD81s+XvUqkj75f7v1be3fxxbfLJxtlo58ETEumwJ/hEHvhHDbV99d/vB1NcfbTwYpw5i/n+4+1N15+69sasS38T2xtqR6vLa0QlIdesTG/6bIK4QJ9z3zfd3qj/+/IuPm3rmS3O4yaDggRyBM2B0m+IN2bh7+FyHF/yCZzTyyr11fR2uunPV+Sd22PmwNcHO2BqDNc019E3OoL59+DVOyfiLa+er5f17s7dumQaBIiFtX3KyoReUSeQaE40C9gkM7UI9LmmKuIbOFvObIpwPk0DVXWJeIvDtE8cQl5yHf+RZ64FrrItcUeV+YsMz65lr6Hk2X2y1i41VZFm3tHfXOJ/aHz6w8ED8Xd+pPmJ26y8cqq6efT5m4l3LEqjcS+aN6JlkQkP+ua5F4HETnNKicH20lQwtEAVSip1vUPDFy6N+OZ5mgcrllpcYZyNvPCf6GA9qVzfWeoCt5i4XM2OpDx921l2pANbhVO6IqbQv5SAUb/Hx3dWtG+uh5eh8rUBhNwnXJES9ZixqsXQlUHoGFgoh8mx8Lu3bxm4C9f/HeuakLYFyRULrurQe6nwQuxubZ0vpNYYrIm0JlN7HFEwpNh+/daY6urQ/xXTCJkmgSIYSNOGpcEIvoisedMmiCa3TLtaHfITmY75y1kr9Ky8sbl/ceXyDYj36+CiZ07pmvnL91Plg7TYRKGBiLbgcUKC6EJhcLtT+0smVauPlYzqVNU4SKL0sJDorSsRYC4Lku+a0KY2tSXN9MNGhNyAXS+5zKXblPMQLsMyjQDW95G4OVVxYD65N3TMFAnbMue5h3Wkt6nrKOIazLn6K/7Ztlhb2Vjevn2/kNkmglFQlqVHk0Wa9hDGBYMKZ5Ny4Gse97CzINs+l+EqxxzCr/3kSKOZf61G5aDJmXbAecn3VCUQb2DWGi1PrlzWXe4a27T+9crZ6brHZ3/onCRSAKyEku+mB1CcLxOeThGsSfHahOV523/5UDCHfdfPEnssZMcN/jJt5FChwQl4xbqMxP6XipznyYdPa05rLwZ4qUKX+c7DU2b6+eqR689Tk127q9rnryQKliVOyXYepz3oBY29P8KcJZyGlxtH9vjh6Lt96ThyfLbHn4lZ+tPjdGPMkUFp3bV9C9c2cuVyHnlU4YBPazzyWfkTlfsTwnZ81pjUN277bs0/uqz67eq6VsMkChWh6aTShuUhy/WjCc+NqLE2wYtZkM8m6HhujGH6+/1vwO1TEnus3BTdwzZNA4bzKI7nFfEpD7eD7PuDWbVpXuRfcrasQLsWuNedi8T27Iujbr2coEUHEQC3j/E3a5yNxOjgSqTZalkAhoEuMkp4CSC8e7N3k+ny4CU9909FYsT1akEgyEoW+rqn/EA/EHloPxVDfMY7mTaD0EmreQjxyXi+4W8M+m9QLTr/AwpphzulXe81lCIfaY+yLEdqrdZZ6Bq351D0uRj7jYx0+3rXVsgUKgfXy4BmXHw1E+hqSB2XG4dmUFM6FeiYc5CM2i4E+3H1Ypx3WYuLEvb4zpZ4n5l+xs4AZM9YrHi1qd8+8CRTOzwtLLmKXCpzrt6RjtvCXesFZe+hZb9iLxpyPH5z/wZ52WIrhicUICRR8pp4BtoqH50Bf0tRXyX7fniKBgiO9QOoYIPGfHlLHsM09CBPOxKr40J/G1Hgx8VDcGPvORPHFOv2yx1ydf8UOjKlNsTQVqNSYrp3v8hCLbw37NbexS+TGwrMKD3nz2bm2tAEmNnLNHvMhzNzDXnFgDvnWnMMn/WIeuUJjfbaN3RejjtvYGYidPbAjBnw2aTevX6iWFvY0cTGxt1ig6EkvEudCPQgBcUpMyFbnmXD9k6EubmksJMp921MsOlY8Oq9jH3ZdD421YCgKPtuUNyjfvtQ54qc9zxy7IMQbs6E/7ZEz+Nez67o7hr2+HbnrfIY/1Av61OZecN8+xUnssHM58+1Nxa6iqphSYqi9DwPnNAbncvsrZ45VF0+s5G6rtW8sUIzAP0XwrIWARKChkDgeT2T8j8ng5dCtjMuYTHxprJhvruWIrOLi/tQeZ6vjLSZQiAOspc33A1PyS959vhHTt9dn686V7uU53bwDJ3Pgxkp59vnl2V2/bWL34YZ/vtHzTpSeAftC50jxqTb4Zyz45yxdtNYEqgtw9Mlk+ASKNvPa1wnUvPLyMJ6b9Q9hbPpxrC1+towcffn2erW4b3dbLjf5MYHaRMfsPZhAzV7OShDjzRAChdbGR7ISDL4910a/QuXC6FepdNVMoLpitie/JlA9ET1wGL49AQY/UQwMqTr+zFPVh5dPdwrDBKpTert3bgLVPcdtR8DbkPvzq1gMFadpeXva+ugj49/xtLBnVwx64zUTqMYUDuvABGpY/nOjux/VsJ8/rHZ9qS3WpkWcgOXGuRerV44fxLDTZgLVKb3dOzeB6p7jtiPo38apb75VQZjcNk3idOLQYvXBa6dciJ08m0B1Qmt/Tk2g+uO6zUj8+gK/NhDyDdHyfeUgZN/1/I5tW8cf7fY9trPrUGP/MyFQSFDd94F6YWsKg5hATWFSMiHhjQn1zYbvkKHxjYrz09C/s36yOnN0uTcoMyFQvbExg4FMoGYwaTMKeXXl6er9S6u9ojeB6pXu9oOZQLXPqXmcZGDXju3VrdEXMnfv3D652OGMCVSH5Pbh2gSqD5YtxnsXX6rWDi/1ToQJVO+UtxvQBKpdPs3bJAOnjyxX7756cnKhhxkTqB5I7jLEvV///YFqlzHM93wzsDz6FSo7t28bhAQTqEFot6DGgDGQwoAJVApLZmMMGAODMGACNQjtFtQYMAZSGDCBSmHJbIwBY2AQBkygBqHdghoDxkAKAyZQKSyZjTFgDAzCgAnUILRbUGPAGEhhwAQqhSWzMQaMgUEYMIEahHYLagwYAykMmEClsGQ2xoAxMAgDJlCD0G5BjQFjIIUBE6gUlszGGDAGBmHABGoQ2i2oMWAMpDBgApXCktkYA8bAIAz8A51tBblKhKSfAAAAAElFTkSuQmCC;" vertex="1" parent="r6pZuNi5Q7_uVQTA39u1-1">
          <mxGeometry x="18" y="610" width="145.65" height="41.33" as="geometry" />
        </mxCell>
        <mxCell id="r6pZuNi5Q7_uVQTA39u1-53" value="Reference Data&lt;br&gt;Asset" style="rounded=1;whiteSpace=wrap;html=1;" vertex="1" parent="r6pZuNi5Q7_uVQTA39u1-1">
          <mxGeometry x="46" y="353" width="76" height="46" as="geometry" />
        </mxCell>
        <mxCell id="r6pZuNi5Q7_uVQTA39u1-54" value="Reference Data&lt;br&gt;Asset" style="rounded=1;whiteSpace=wrap;html=1;" vertex="1" parent="r6pZuNi5Q7_uVQTA39u1-1">
          <mxGeometry x="408" y="188" width="76" height="46" as="geometry" />
        </mxCell>
        <mxCell id="r6pZuNi5Q7_uVQTA39u1-55" value="Amazon&lt;br&gt;DataZone" style="sketch=0;points=[[0,0,0],[0.25,0,0],[0.5,0,0],[0.75,0,0],[1,0,0],[0,1,0],[0.25,1,0],[0.5,1,0],[0.75,1,0],[1,1,0],[0,0.25,0],[0,0.5,0],[0,0.75,0],[1,0.25,0],[1,0.5,0],[1,0.75,0]];outlineConnect=0;fontColor=#232F3E;fillColor=#8C4FFF;strokeColor=#ffffff;dashed=0;verticalLabelPosition=bottom;verticalAlign=top;align=center;html=1;fontSize=12;fontStyle=0;aspect=fixed;shape=mxgraph.aws4.resourceIcon;resIcon=mxgraph.aws4.datazone;" vertex="1" parent="r6pZuNi5Q7_uVQTA39u1-1">
          <mxGeometry x="15" y="68" width="78" height="78" as="geometry" />
        </mxCell>
        <mxCell id="r6pZuNi5Q7_uVQTA39u1-57" value="Emissions Factors&lt;br&gt;Asset" style="rounded=1;whiteSpace=wrap;html=1;" vertex="1" parent="r6pZuNi5Q7_uVQTA39u1-1">
          <mxGeometry x="79" y="681" width="76" height="46" as="geometry" />
        </mxCell>
        <mxCell id="r6pZuNi5Q7_uVQTA39u1-58" value="Business Activities&lt;br&gt;Asset" style="rounded=1;whiteSpace=wrap;html=1;" vertex="1" parent="r6pZuNi5Q7_uVQTA39u1-1">
          <mxGeometry x="78" y="803" width="76" height="46" as="geometry" />
        </mxCell>
        <mxCell id="r6pZuNi5Q7_uVQTA39u1-59" value="Reference Data&lt;br&gt;Asset" style="rounded=1;whiteSpace=wrap;html=1;" vertex="1" parent="r6pZuNi5Q7_uVQTA39u1-1">
          <mxGeometry x="79" y="740" width="76" height="46" as="geometry" />
        </mxCell>
        <mxCell id="r6pZuNi5Q7_uVQTA39u1-21" style="edgeStyle=orthogonalEdgeStyle;rounded=0;orthogonalLoop=1;jettySize=auto;html=1;" edge="1" parent="1" source="r6pZuNi5Q7_uVQTA39u1-2" target="r6pZuNi5Q7_uVQTA39u1-48">
          <mxGeometry relative="1" as="geometry">
            <mxPoint x="-2077" y="1934.0000000000005" as="sourcePoint" />
            <mxPoint x="-1914" y="1934.0588235294117" as="targetPoint" />
            <Array as="points">
              <mxPoint x="-2133" y="1276" />
              <mxPoint x="-2133" y="1180" />
            </Array>
          </mxGeometry>
        </mxCell>
        <mxCell id="r6pZuNi5Q7_uVQTA39u1-22" value="Associated Account" style="edgeLabel;html=1;align=center;verticalAlign=middle;resizable=0;points=[];" vertex="1" connectable="0" parent="r6pZuNi5Q7_uVQTA39u1-21">
          <mxGeometry x="-0.1814" y="4" relative="1" as="geometry">
            <mxPoint x="72" y="-30" as="offset" />
          </mxGeometry>
        </mxCell>
        <mxCell id="r6pZuNi5Q7_uVQTA39u1-23" style="edgeStyle=orthogonalEdgeStyle;rounded=0;orthogonalLoop=1;jettySize=auto;html=1;" edge="1" parent="1" source="r6pZuNi5Q7_uVQTA39u1-17" target="r6pZuNi5Q7_uVQTA39u1-26">
          <mxGeometry relative="1" as="geometry">
            <Array as="points">
              <mxPoint x="-2128" y="1507" />
              <mxPoint x="-2128" y="1347" />
            </Array>
            <mxPoint x="-2072" y="2002.0000000000005" as="sourcePoint" />
            <mxPoint x="-1805" y="2048.9999999999995" as="targetPoint" />
          </mxGeometry>
        </mxCell>
        <mxCell id="r6pZuNi5Q7_uVQTA39u1-24" value="Import technical&lt;br&gt;metadata" style="edgeLabel;html=1;align=center;verticalAlign=middle;resizable=0;points=[];" vertex="1" connectable="0" parent="r6pZuNi5Q7_uVQTA39u1-23">
          <mxGeometry x="-0.4551" y="-3" relative="1" as="geometry">
            <mxPoint x="59" y="-156" as="offset" />
          </mxGeometry>
        </mxCell>
        <mxCell id="r6pZuNi5Q7_uVQTA39u1-25" value="Domain Asset Account (DAA) - Business Unit (BIZ)" style="points=[[0,0],[0.25,0],[0.5,0],[0.75,0],[1,0],[1,0.25],[1,0.5],[1,0.75],[1,1],[0.75,1],[0.5,1],[0.25,1],[0,1],[0,0.75],[0,0.5],[0,0.25]];outlineConnect=0;gradientColor=none;html=1;whiteSpace=wrap;fontSize=12;fontStyle=1;container=1;pointerEvents=0;collapsible=0;recursiveResize=0;shape=mxgraph.aws4.group;grIcon=mxgraph.aws4.group_account;strokeColor=#CD2264;fillColor=none;verticalAlign=top;align=left;spacingLeft=30;fontColor=#CD2264;dashed=0;" vertex="1" parent="1">
          <mxGeometry x="-2001" y="1098" width="335" height="312" as="geometry" />
        </mxCell>
        <mxCell id="r6pZuNi5Q7_uVQTA39u1-26" value="&lt;font color=&quot;#000000&quot;&gt;Glue Data Catalog&lt;/font&gt;" style="fillColor=#fff2cc;strokeColor=#d6b656;dashed=1;verticalAlign=top;fontStyle=0;whiteSpace=wrap;html=1;" vertex="1" parent="r6pZuNi5Q7_uVQTA39u1-25">
          <mxGeometry x="22" y="190.25" width="104" height="104" as="geometry" />
        </mxCell>
        <mxCell id="r6pZuNi5Q7_uVQTA39u1-27" value="Business Activities Table" style="rounded=1;whiteSpace=wrap;html=1;" vertex="1" parent="r6pZuNi5Q7_uVQTA39u1-25">
          <mxGeometry x="36" y="236.25" width="76" height="46" as="geometry" />
        </mxCell>
        <mxCell id="r6pZuNi5Q7_uVQTA39u1-28" value="&lt;font color=&quot;#000000&quot;&gt;S3&lt;/font&gt;" style="fillColor=#d5e8d4;strokeColor=#82b366;dashed=1;verticalAlign=top;fontStyle=0;whiteSpace=wrap;html=1;" vertex="1" parent="r6pZuNi5Q7_uVQTA39u1-25">
          <mxGeometry x="209" y="190.25" width="104" height="104" as="geometry" />
        </mxCell>
        <mxCell id="r6pZuNi5Q7_uVQTA39u1-29" value="Business Activities File(s)" style="shape=document;whiteSpace=wrap;html=1;boundedLbl=1;size=0.09649122807017543;" vertex="1" parent="r6pZuNi5Q7_uVQTA39u1-25">
          <mxGeometry x="221" y="230.75" width="80" height="57" as="geometry" />
        </mxCell>
        <mxCell id="r6pZuNi5Q7_uVQTA39u1-30" value="references" style="edgeStyle=orthogonalEdgeStyle;rounded=0;orthogonalLoop=1;jettySize=auto;html=1;" edge="1" parent="r6pZuNi5Q7_uVQTA39u1-25" source="r6pZuNi5Q7_uVQTA39u1-27" target="r6pZuNi5Q7_uVQTA39u1-29">
          <mxGeometry x="0.0092" y="8" relative="1" as="geometry">
            <mxPoint as="offset" />
          </mxGeometry>
        </mxCell>
        <mxCell id="r6pZuNi5Q7_uVQTA39u1-31" style="edgeStyle=orthogonalEdgeStyle;rounded=0;orthogonalLoop=1;jettySize=auto;html=1;exitX=0.5;exitY=1;exitDx=0;exitDy=0;" edge="1" parent="r6pZuNi5Q7_uVQTA39u1-25">
          <mxGeometry relative="1" as="geometry">
            <mxPoint x="167.5" y="277.2499999999998" as="sourcePoint" />
            <mxPoint x="167.5" y="277.2499999999998" as="targetPoint" />
          </mxGeometry>
        </mxCell>
        <mxCell id="r6pZuNi5Q7_uVQTA39u1-48" value="Amazon&lt;br&gt;DataZone" style="sketch=0;points=[[0,0,0],[0.25,0,0],[0.5,0,0],[0.75,0,0],[1,0,0],[0,1,0],[0.25,1,0],[0.5,1,0],[0.75,1,0],[1,1,0],[0,0.25,0],[0,0.5,0],[0,0.75,0],[1,0.25,0],[1,0.5,0],[1,0.75,0]];outlineConnect=0;fontColor=#232F3E;fillColor=#8C4FFF;strokeColor=#ffffff;dashed=0;verticalLabelPosition=bottom;verticalAlign=top;align=center;html=1;fontSize=12;fontStyle=0;aspect=fixed;shape=mxgraph.aws4.resourceIcon;resIcon=mxgraph.aws4.datazone;" vertex="1" parent="r6pZuNi5Q7_uVQTA39u1-25">
          <mxGeometry x="16" y="43" width="78" height="78" as="geometry" />
        </mxCell>
        <mxCell id="r6pZuNi5Q7_uVQTA39u1-32" value="Domain Asset Account (DAA) - Sustainability (SUS)" style="points=[[0,0],[0.25,0],[0.5,0],[0.75,0],[1,0],[1,0.25],[1,0.5],[1,0.75],[1,1],[0.75,1],[0.5,1],[0.25,1],[0,1],[0,0.75],[0,0.5],[0,0.25]];outlineConnect=0;gradientColor=none;html=1;whiteSpace=wrap;fontSize=12;fontStyle=1;container=1;pointerEvents=0;collapsible=0;recursiveResize=0;shape=mxgraph.aws4.group;grIcon=mxgraph.aws4.group_account;strokeColor=#CD2264;fillColor=none;verticalAlign=top;align=left;spacingLeft=30;fontColor=#CD2264;dashed=0;" vertex="1" parent="1">
          <mxGeometry x="-1997" y="1450" width="343" height="389" as="geometry" />
        </mxCell>
        <mxCell id="r6pZuNi5Q7_uVQTA39u1-33" value="&lt;font color=&quot;#000000&quot;&gt;Glue Data Catalog&lt;/font&gt;" style="fillColor=#fff2cc;strokeColor=#d6b656;dashed=1;verticalAlign=top;fontStyle=0;whiteSpace=wrap;html=1;" vertex="1" parent="r6pZuNi5Q7_uVQTA39u1-32">
          <mxGeometry x="17.8" y="168" width="104" height="179" as="geometry" />
        </mxCell>
        <mxCell id="r6pZuNi5Q7_uVQTA39u1-34" value="Emissions Factors&lt;br&gt;Table" style="rounded=1;whiteSpace=wrap;html=1;" vertex="1" parent="r6pZuNi5Q7_uVQTA39u1-32">
          <mxGeometry x="31.8" y="214" width="76" height="46" as="geometry" />
        </mxCell>
        <mxCell id="r6pZuNi5Q7_uVQTA39u1-35" value="&lt;font color=&quot;#000000&quot;&gt;S3&lt;/font&gt;" style="fillColor=#d5e8d4;strokeColor=#82b366;dashed=1;verticalAlign=top;fontStyle=0;whiteSpace=wrap;html=1;" vertex="1" parent="r6pZuNi5Q7_uVQTA39u1-32">
          <mxGeometry x="204.8" y="168" width="104" height="180" as="geometry" />
        </mxCell>
        <mxCell id="r6pZuNi5Q7_uVQTA39u1-36" value="Emissions Factors&lt;br&gt;File(s)" style="shape=document;whiteSpace=wrap;html=1;boundedLbl=1;size=0.09649122807017543;" vertex="1" parent="r6pZuNi5Q7_uVQTA39u1-32">
          <mxGeometry x="216.8" y="208.5" width="80" height="57" as="geometry" />
        </mxCell>
        <mxCell id="r6pZuNi5Q7_uVQTA39u1-37" value="references" style="edgeStyle=orthogonalEdgeStyle;rounded=0;orthogonalLoop=1;jettySize=auto;html=1;" edge="1" parent="r6pZuNi5Q7_uVQTA39u1-32" source="r6pZuNi5Q7_uVQTA39u1-34" target="r6pZuNi5Q7_uVQTA39u1-36">
          <mxGeometry x="0.0092" y="8" relative="1" as="geometry">
            <mxPoint as="offset" />
          </mxGeometry>
        </mxCell>
        <mxCell id="r6pZuNi5Q7_uVQTA39u1-38" style="edgeStyle=orthogonalEdgeStyle;rounded=0;orthogonalLoop=1;jettySize=auto;html=1;exitX=0.5;exitY=1;exitDx=0;exitDy=0;" edge="1" parent="r6pZuNi5Q7_uVQTA39u1-32">
          <mxGeometry relative="1" as="geometry">
            <mxPoint x="167.5" y="260.2499999999998" as="sourcePoint" />
            <mxPoint x="167.5" y="260.2499999999998" as="targetPoint" />
          </mxGeometry>
        </mxCell>
        <mxCell id="r6pZuNi5Q7_uVQTA39u1-49" value="Amazon&lt;br&gt;DataZone" style="sketch=0;points=[[0,0,0],[0.25,0,0],[0.5,0,0],[0.75,0,0],[1,0,0],[0,1,0],[0.25,1,0],[0.5,1,0],[0.75,1,0],[1,1,0],[0,0.25,0],[0,0.5,0],[0,0.75,0],[1,0.25,0],[1,0.5,0],[1,0.75,0]];outlineConnect=0;fontColor=#232F3E;fillColor=#8C4FFF;strokeColor=#ffffff;dashed=0;verticalLabelPosition=bottom;verticalAlign=top;align=center;html=1;fontSize=12;fontStyle=0;aspect=fixed;shape=mxgraph.aws4.resourceIcon;resIcon=mxgraph.aws4.datazone;" vertex="1" parent="r6pZuNi5Q7_uVQTA39u1-32">
          <mxGeometry x="22" y="41" width="78" height="78" as="geometry" />
        </mxCell>
        <mxCell id="r6pZuNi5Q7_uVQTA39u1-50" value="Reference Data File(s)" style="shape=document;whiteSpace=wrap;html=1;boundedLbl=1;size=0.09649122807017543;" vertex="1" parent="r6pZuNi5Q7_uVQTA39u1-32">
          <mxGeometry x="215" y="275" width="80" height="57" as="geometry" />
        </mxCell>
        <mxCell id="r6pZuNi5Q7_uVQTA39u1-51" value="Reference Data&lt;br&gt;Table" style="rounded=1;whiteSpace=wrap;html=1;" vertex="1" parent="r6pZuNi5Q7_uVQTA39u1-32">
          <mxGeometry x="31.799999999999955" y="280.5" width="76" height="46" as="geometry" />
        </mxCell>
        <mxCell id="r6pZuNi5Q7_uVQTA39u1-52" value="references" style="edgeStyle=orthogonalEdgeStyle;rounded=0;orthogonalLoop=1;jettySize=auto;html=1;" edge="1" parent="r6pZuNi5Q7_uVQTA39u1-32" source="r6pZuNi5Q7_uVQTA39u1-51" target="r6pZuNi5Q7_uVQTA39u1-50">
          <mxGeometry x="0.0092" y="8" relative="1" as="geometry">
            <mxPoint as="offset" />
            <mxPoint x="118" y="226" as="sourcePoint" />
            <mxPoint x="227" y="226" as="targetPoint" />
          </mxGeometry>
        </mxCell>
        <mxCell id="r6pZuNi5Q7_uVQTA39u1-39" style="edgeStyle=orthogonalEdgeStyle;rounded=0;orthogonalLoop=1;jettySize=auto;html=1;" edge="1" parent="1" source="r6pZuNi5Q7_uVQTA39u1-2" target="r6pZuNi5Q7_uVQTA39u1-49">
          <mxGeometry relative="1" as="geometry">
            <mxPoint x="-2197" y="1196" as="sourcePoint" />
            <mxPoint x="-1991" y="1196" as="targetPoint" />
            <Array as="points">
              <mxPoint x="-2132" y="1535" />
              <mxPoint x="-2132" y="1535" />
            </Array>
          </mxGeometry>
        </mxCell>
        <mxCell id="r6pZuNi5Q7_uVQTA39u1-40" value="Associated Account" style="edgeLabel;html=1;align=center;verticalAlign=middle;resizable=0;points=[];" vertex="1" connectable="0" parent="r6pZuNi5Q7_uVQTA39u1-39">
          <mxGeometry x="-0.1814" y="4" relative="1" as="geometry">
            <mxPoint x="25" y="-5" as="offset" />
          </mxGeometry>
        </mxCell>
        <mxCell id="r6pZuNi5Q7_uVQTA39u1-41" style="edgeStyle=orthogonalEdgeStyle;rounded=0;orthogonalLoop=1;jettySize=auto;html=1;" edge="1" parent="1" source="r6pZuNi5Q7_uVQTA39u1-14" target="r6pZuNi5Q7_uVQTA39u1-33">
          <mxGeometry relative="1" as="geometry">
            <Array as="points">
              <mxPoint x="-2442" y="1687" />
            </Array>
            <mxPoint x="-2229" y="1456" as="sourcePoint" />
            <mxPoint x="-1969" y="1265" as="targetPoint" />
          </mxGeometry>
        </mxCell>
        <mxCell id="r6pZuNi5Q7_uVQTA39u1-42" value="Import technical&lt;br&gt;metadata" style="edgeLabel;html=1;align=center;verticalAlign=middle;resizable=0;points=[];" vertex="1" connectable="0" parent="r6pZuNi5Q7_uVQTA39u1-41">
          <mxGeometry x="-0.4551" y="-3" relative="1" as="geometry">
            <mxPoint x="340" y="-23" as="offset" />
          </mxGeometry>
        </mxCell>
        <mxCell id="r6pZuNi5Q7_uVQTA39u1-44" value="User" style="sketch=0;outlineConnect=0;fontColor=#232F3E;gradientColor=none;fillColor=#232F3D;strokeColor=none;dashed=0;verticalLabelPosition=bottom;verticalAlign=top;align=center;html=1;fontSize=12;fontStyle=0;aspect=fixed;pointerEvents=1;shape=mxgraph.aws4.user;" vertex="1" parent="1">
          <mxGeometry x="-2977" y="1618" width="42" height="42" as="geometry" />
        </mxCell>
        <mxCell id="r6pZuNi5Q7_uVQTA39u1-43" style="edgeStyle=orthogonalEdgeStyle;rounded=0;orthogonalLoop=1;jettySize=auto;html=1;" edge="1" parent="1" source="r6pZuNi5Q7_uVQTA39u1-44" target="r6pZuNi5Q7_uVQTA39u1-20">
          <mxGeometry relative="1" as="geometry">
            <Array as="points">
              <mxPoint x="-2912" y="1639" />
              <mxPoint x="-2912" y="1579" />
            </Array>
          </mxGeometry>
        </mxCell>
        <mxCell id="r6pZuNi5Q7_uVQTA39u1-60" style="edgeStyle=orthogonalEdgeStyle;rounded=0;orthogonalLoop=1;jettySize=auto;html=1;entryX=0;entryY=0.5;entryDx=0;entryDy=0;" edge="1" parent="1" source="r6pZuNi5Q7_uVQTA39u1-44" target="r6pZuNi5Q7_uVQTA39u1-56">
          <mxGeometry relative="1" as="geometry">
            <mxPoint x="-2927" y="1649" as="sourcePoint" />
            <mxPoint x="-2783" y="1589" as="targetPoint" />
            <Array as="points">
              <mxPoint x="-2914" y="1639" />
              <mxPoint x="-2914" y="1882" />
            </Array>
          </mxGeometry>
        </mxCell>
      </root>
    </mxGraphModel>
  </diagram>
</mxfile>
